<svg width="18" height="18" viewBox="0 0 18 18" fill="none" xmlns="http://www.w3.org/2000/svg">
<g clip-path="url(#clip0_48_288)">
<mask id="mask0_48_288" style="mask-type:luminance" maskUnits="userSpaceOnUse" x="0" y="0" width="18" height="18">
<path d="M17.9109 0H0.0891113V18H17.9109V0Z" fill="white"/>
</mask>
<g mask="url(#mask0_48_288)">
<path d="M0.0891113 8.64C0.0891113 4.56707 0.0891113 2.5306 1.34188 1.2653C2.59466 0 4.61096 0 8.64357 0H9.35644C13.389 0 15.4053 0 16.6581 1.2653C17.9109 2.5306 17.9109 4.56707 17.9109 8.64V9.36C17.9109 13.4329 17.9109 15.4694 16.6581 16.7347C15.4053 18 13.389 18 9.35644 18H8.64357C4.61096 18 2.59466 18 1.34188 16.7347C0.0891113 15.4694 0.0891113 13.4329 0.0891113 9.36V8.64Z" fill="#0077FF"/>
<path d="M9.57181 12.9675C5.50993 12.9675 3.19311 10.155 3.09657 5.47504H5.13123C5.19806 8.91003 6.69803 10.365 7.88614 10.665V5.47504H9.80205V8.43751C10.9753 8.31002 12.2078 6.96004 12.6237 5.47504H14.5396C14.2203 7.30504 12.8836 8.65502 11.9331 9.21002C12.8836 9.66002 14.406 10.8375 14.9852 12.9675H12.8762C12.4232 11.5425 11.2946 10.44 9.80205 10.29V12.9675H9.57181Z" fill="white"/>
</g>
</g>
<defs>
<clipPath id="clip0_48_288">
<rect width="18" height="18" fill="white"/>
</clipPath>
</defs>
</svg>
